# xmcd CD database file
#
# Track frame offsets:
#	150
#	17527
#	29575
#	41485
#	54555
#	65441
#	76775
#	92322
#	104597
#	117172
#	127189
#	138010
#	154935
#	165841
#	181137
#	196835
#
# Disc length: 3022 seconds
#
# Revision: 4
# Processed by: cddbd v1.5.2PL0 Copyright (c) Steve Scherf et al.
# Submitted via: CDex 1.51
#
DISCID=c20bcc10
DTITLE=Ike and Tina Turner - The Universal Masters Collection
DYEAR=1900
DGENRE=Blues
TTITLE0=I've Been Loving You Too Long
TTITLE1=Three O'Clock In The Morning Blues
TTITLE2=Bold Soul Sister
TTITLE3=You Don't Love Me (Yes I Know)
TTITLE4=Mean Old World
TTITLE5=Dust My Broom
TTITLE6=Crazy 'Bout You Baby
TTITLE7=Reconsider Baby
TTITLE8=Rock Me Baby
TTITLE9=Pleasa Love Me
TTITLE10=Honest I Do
TTITLE11=I Smell Trouble
TTITLE12=Early In The Morning
TTITLE13=Five Long Years
TTITLE14=I Am A Motherless Child
TTITLE15=The Hunter
EXTD=
EXTT0=
EXTT1=
EXTT2=
EXTT3=
EXTT4=
EXTT5=
EXTT6=
EXTT7=
EXTT8=
EXTT9=
EXTT10=
EXTT11=
EXTT12=
EXTT13=
EXTT14=
EXTT15=
PLAYORDER=
